<?xml version="1.0" encoding="UTF-8"?>
<svg width="31.75mm" height="31.75mm" version="1.1" viewBox="0 0 31.749999 31.750003" xmlns="http://www.w3.org/2000/svg">
 <g transform="translate(24.361 -91.51)">
  <path d="m-2.3464 99.38-9.2805 3.934v7.1468a2.7741 2.2193 0 0 0 -1.3618 -0.2871 2.7741 2.2193 0 0 0 -2.7743 2.2192 2.7741 2.2193 0 0 0 2.7743 2.2192 2.7741 2.2193 0 0 0 2.7739 -2.2192 2.7741 2.2193 0 0 0 -0.20167 -0.82776v-6.8386l6.9603-2.5219v5.7682a2.9254 2.3706 0 0 0 -1.6645 -0.42207 2.9254 2.3706 0 0 0 -2.9253 2.3709 2.9254 2.3706 0 0 0 2.9253 2.3706 2.9254 2.3706 0 0 0 2.9256 -2.3706 2.9254 2.3706 0 0 0 -0.15135 -0.74312zm9.4631 8.005a15.602 15.602 0 0 1 -15.602 15.602 15.602 15.602 0 0 1 -15.602 -15.602 15.602 15.602 0 0 1 15.602 -15.602 15.602 15.602 0 0 1 15.602 15.602z"  stroke="#f00" />
 </g>
</svg>
