<?xml version="1.0" encoding="UTF-8"?>
<svg width="18.763mm" height="23.007mm" version="1.1" viewBox="0 0 18.762676 23.006974" xmlns="http://www.w3.org/2000/svg">
 <g transform="translate(-94.782 -134.13)">
  <path d="m101.73 141.73a4.5314 5.3417 0 0 1 -3.7508 2.35 4.5314 5.3417 0 0 1 -2.0708 -0.59579v8.3986h5.1742l-3.3734 3.6013 1.0203 1.2605 4.5018-4.5018 4.3215 4.5615 1.1406-1.3204-3.2699-3.6013h4.5903v-3.739l3.3012 2.7186-0.12-8.4628-3.1812 2.8876v-2.4187a5.5519 5.432 0 0 1 -3.6313 1.3316 5.5519 5.432 0 0 1 -4.6522 -2.47zm-0.77976-1.8214a2.9711 2.9711 0 0 0 -2.9711 -2.9711 2.9711 2.9711 0 0 0 -2.9711 2.9711 2.9711 2.9711 0 0 0 2.9711 2.9711 2.9711 2.9711 0 0 0 2.9711 -2.9711zm9.5435-1.3205a4.1115 4.2315 0 0 1 -4.1115 4.2315 4.1115 4.2315 0 0 1 -4.1115 -4.2315 4.1115 4.2315 0 0 1 4.1115 -4.2315 4.1115 4.2315 0 0 1 4.1115 4.2315z" stroke="#000"/>
 </g>
</svg>
