<?xml version="1.0" encoding="utf-8"?>
<!-- Generator: Adobe Illustrator 17.0.0, SVG Export Plug-In . SVG Version: 6.00 Build 0)  -->
<!DOCTYPE svg PUBLIC "-//W3C//DTD SVG 1.1//EN" "http://www.w3.org/Graphics/SVG/1.1/DTD/svg11.dtd">
<svg version="1.1" id="Layer_1" xmlns="http://www.w3.org/2000/svg" xmlns:xlink="http://www.w3.org/1999/xlink" x="0px" y="0px"
	 width="746px" height="560px" viewBox="0 0 746 560" enable-background="new 0 0 746 560" xml:space="preserve">
<path fill="none" stroke="#000000" stroke-miterlimit="10" d="M444.203,158.205c8.63,20.735,13.601,45.095,13.601,71.156
	c0,75.599-41.836,136.885-93.443,136.885s-93.443-61.285-93.443-136.885c0-16.812,2.069-32.917,5.854-47.797"/>
<polyline fill="none" stroke="#000000" stroke-miterlimit="10" points="376.656,560.5 377.475,511.578 397.967,463.912 
	390.365,420.344 355.006,457.23 338.5,533.459 338.5,560.5 "/>
<path fill="none" stroke="#000000" stroke-miterlimit="10" d="M376.656,560.5"/>
<path fill="none" stroke="#000000" stroke-miterlimit="10" d="M338.5,560.5"/>
<polyline fill="none" stroke="#000000" stroke-miterlimit="10" points="390.365,420.344 428.295,386.738 440.59,349.852 
	457.803,381.82 411.902,490.172 397.967,463.787 "/>
<polygon fill="none" stroke="#000000" stroke-miterlimit="10" points="298.939,366.164 293.945,393.254 303.894,452.291 
	324.5,494.934 324.5,471 309.222,452.311 316,430.549 354.027,461.753 323.986,426.902 "/>
<ellipse fill="none" stroke="#000000" stroke-miterlimit="10" cx="409.852" cy="468.295" rx="3.689" ry="5.328"/>
<ellipse fill="none" stroke="#000000" stroke-miterlimit="10" cx="321.222" cy="474.238" rx="2.763" ry="5.943"/>
<ellipse fill="none" stroke="#000000" stroke-miterlimit="10" cx="361.13" cy="511.738" rx="7.103" ry="11.066"/>
<path fill="none" stroke="#000000" stroke-miterlimit="10" d="M376.656,560.5"/>
<path fill="none" stroke="#000000" stroke-miterlimit="10" d="M673.377,560"/>
<polyline fill="none" stroke="#000000" stroke-miterlimit="10" points="457.803,381.82 497.148,390.836 620.918,420.344 
	673.377,560 "/>
<line fill="none" stroke="#000000" stroke-miterlimit="10" x1="620.918" y1="420.344" x2="561.902" y2="560"/>
<path fill="none" stroke="#000000" stroke-miterlimit="10" d="M338.5,560.5"/>
<path fill="none" stroke="#000000" stroke-miterlimit="10" d="M97.967,560"/>
<polyline fill="none" stroke="#000000" stroke-miterlimit="10" points="293.945,396.574 162.721,437.557 97.967,560 "/>
<line fill="none" stroke="#000000" stroke-miterlimit="10" x1="161.545" y1="439.781" x2="170.918" y2="560"/>
<line fill="none" stroke="#000000" stroke-miterlimit="10" x1="440.5" y1="350" x2="440.5" y2="309"/>
<line fill="none" stroke="#000000" stroke-miterlimit="10" x1="298.5" y1="366" x2="298.5" y2="327"/>
<path fill="none" stroke="#000000" stroke-miterlimit="10" d="M452.363,275.46c2.333,8.658,5.912,14.199,9.925,14.199
	c7.03,0,12.729-17.007,12.729-37.985s-5.699-37.985-12.729-37.985c-1.734,0-3.388,1.035-4.895,2.91"/>
<path fill="none" stroke="#000000" stroke-miterlimit="10" d="M272.432,216.349c-3.691,5.187-7.045,17.783-8.318,32.688
	c-1.697,19.873,0.95,36.327,5.911,36.751c2.296,0.196,4.685-3.074,6.758-8.614"/>
<polygon stroke="#000000" points="432.5,79.5 457.803,85.5 463.69,134.5 470.5,151.5 470.5,213.689 457.763,225.441 444.2,158.202 
	440.5,130.5 406.163,98.5 373,99.5 333.5,92.476 303.893,125.01 279.427,162.453 276.783,166.5 276.783,190.5 270.192,213.689 
	270.918,134.5 288.5,108.5 293.945,79.5 361.13,44.5 406.163,44.5 "/>
<path fill="none" stroke="#000000" d="M853.5,560.5"/>
<path fill="none" stroke="#000000" stroke-miterlimit="10" d="M200.5,206.5"/>
<path stroke="#000000" stroke-miterlimit="10" d="M447.644,163.333c-15.346-12.371-73.9-8.109-83.283-1.353v-0.813h-14.48
	c-0.026-0.43-0.048-0.667-0.048-0.667c-16-12.333-80-7-82.667,0c0,0-7.667,60,49,49.667c24.549-4.477,31.405-24.132,33.199-37.333
	h13.481c0.435,17.408,6.677,51.915,50.396,43.577C451.817,209.054,447.644,163.333,447.644,163.333z M315.071,205.718
	c-48.942,8.606-42.321-41.364-42.321-41.364c2.303-5.83,57.579-10.272,71.398,0C344.148,164.354,347.675,199.984,315.071,205.718z
	 M412.124,211.656c-50.01,9.197-43.244-44.204-43.244-44.204c2.353-6.23,58.836-10.977,72.956,0
	C441.835,167.451,445.439,205.529,412.124,211.656z"/>
<path fill="none" stroke="#000000" stroke-miterlimit="10" d="M382.667,192.5c1.833-5,26.333-20.5,41.167,6.5"/>
<ellipse stroke="#000000" stroke-miterlimit="10" cx="401.167" cy="191.264" rx="8.5" ry="7.736"/>
<path fill="none" stroke="#000000" stroke-miterlimit="10" d="M330.5,188.639c-1.833-5-26.333-20.5-41.167,6.5"/>
<ellipse stroke="#000000" stroke-miterlimit="10" cx="312" cy="187.403" rx="8.5" ry="7.736"/>
<polyline fill="none" stroke="#000000" stroke-miterlimit="10" points="338.5,201 327,229.5 332.75,240.5 "/>
<polyline fill="none" stroke="#000000" stroke-miterlimit="10" points="373,211 380,233 368.234,242.5 "/>
<polyline fill="none" stroke="#000000" stroke-miterlimit="10" points="336,230.5 343.5,225.441 346.5,230.5 352.5,230.5 
	360.5,225.441 368.234,230.5 "/>
<polygon fill="none" stroke="#000000" stroke-miterlimit="10" points="390.365,280 357.298,270 352.117,274 341,270 320.5,278 
	346,264.5 352.117,267 357.298,264.5 "/>
<polyline fill="none" stroke="#000000" stroke-miterlimit="10" points="330.5,274.098 352.117,281.111 373,274.749 "/>
<polyline fill="none" stroke="#000000" stroke-miterlimit="10" points="386.036,240.5 401.167,266.5 401.167,272.25 "/>
<polyline fill="none" stroke="#000000" stroke-miterlimit="10" points="323.986,247 315.5,268 315.5,274.098 "/>
<polyline fill="none" stroke="#000000" stroke-miterlimit="10" points="357.298,247 357.298,256.375 352.117,262.225 347.5,256.375 
	"/>
<polyline fill="none" stroke="#000000" stroke-miterlimit="10" points="370.346,303.5 366.167,297.833 339.833,297.833 336,303.5 
	"/>
</svg>
